#!OML:ASF H:\Terrain\Patient Classification 1\Animal2\Wednesday\Animal2.ASF
:FULLY-SPECIFIED
:DEGREES
2456
root 13.184 16.305 4.10254 -0.11294 15.1802 6.463
lowerback 6.92193 -0.041853 4.40802
upperback -0.13804 0.42769 2.82764
thorax -4.02153 0.154826 0.41091
lowerneck 14.9104 10.4661 17.7542
upperneck -18.4958 13.8885 -29.272
head -4.17653 8.48391 -13.7025
rclavicle 6.20208e-014 4.6118e-014
rhumerus -19.2005 -4.20788 -71.1385
rradius 115.387
rwrist -17.1415
rhand 0.116147 4.37548
rfingers 7.12502
rthumb 25.7016 -23.9092
lclavicle 6.20208e-014 4.6118e-014
lhumerus -31.3915 36.8698 20.5548
lradius 133.759
lwrist 65.1148
lhand -19.7113 23.617
lfingers 7.12502
lthumb 6.61855 53.4936
rfemur -9.774 15.3729 11.7201
rtibia 54.0821
rfoot -38.2481 -15.1725
rtoes -15.0966
lfemur -22.7087 -3.96049 -1.64309
ltibia 28.6703
lfoot -6.28518 -3.00359
ltoes -40.1706
2457
root 13.1592 16.2878 4.0532 -0.169095 15.5141 6.62655
lowerback 6.88699 -0.152693 4.37601
upperback -0.160374 0.278505 2.86888
thorax -4.02921 0.0818692 0.486969
lowerneck 14.9463 10.4553 17.7998
upperneck -18.5287 13.8924 -29.2148
head -4.19334 8.47939 -13.6949
rclavicle -3.50109e-014 -4.13472e-014
rhumerus -19.3083 -4.04526 -71.1018
rradius 115.161
rwrist -16.8562
rhand 0.170091 4.25355
rfingers 7.12502
rthumb 25.7533 -24.0237
lclavicle -3.50109e-014 -4.13472e-014
lhumerus -31.1113 36.504 19.9037
lradius 133.209
lwrist 64.7211
lhand -18.6158 22.7117
lfingers 7.12502
lthumb 7.676 52.5524
rfemur -9.91539 15.4641 11.711
rtibia 54.4721
rfoot -38.2678 -15.6061
rtoes -13.8754
lfemur -22.43 -4.04529 -1.76953
ltibia 29.28
lfoot -6.65983 -3.04876
ltoes -38.2231
2458
root 13.1378 16.2803 4.00844 -0.152 15.8261 6.75918
lowerback 6.71053 -0.218905 4.3128
upperback -0.136125 0.177159 2.97483
thorax -3.90757 0.0362182 0.64166
lowerneck 14.8344 10.4764 17.785
upperneck -18.5791 13.9045 -29.1814
head -4.18875 8.47799 -13.6709
rclavicle 2.25124e-014 -4.77083e-015
rhumerus -19.144 -3.99552 -70.8714
rradius 114.887
rwrist -16.4369
rhand 0.230344 4.14704
rfingers 7.12502
rthumb 25.811 -24.1218
lclavicle 2.25124e-014 -4.77083e-015
lhumerus -30.5635 36.5874 19.4653
lradius 132.562
lwrist 64.663
lhand -16.7837 22.4568
lfingers 7.12502
lthumb 9.44406 52.2252
rfemur -10.1141 15.4391 11.6519
rtibia 54.76
rfoot -38.3074 -15.628
rtoes -13.1652
lfemur -22.2298 -4.13264 -1.86873
ltibia 29.8539
lfoot -6.87457 -3.2496
ltoes -35.5542
2459
root 13.1197 16.2744 3.96737 -0.0714705 16.1733 6.92246
lowerback 6.44178 -0.317271 4.20366
upperback -0.139425 0.0235742 3.05408
thorax -3.76284 -0.0349235 0.79843
lowerneck 14.8298 10.5373 17.8685
upperneck -18.6948 13.9997 -29.1703
head -4.18952 8.51998 -13.6817
rclavicle 2.24378e-014 1.43125e-014
rhumerus -18.7766 -3.94812 -70.7445
rradius 114.503
rwrist -15.946
rhand 0.502001 4.00774
rfingers 7.12502
rthumb 26.0711 -24.223
lclavicle 2.24378e-014 1.43125e-014
lhumerus -30.2067 36.6809 18.6418
lradius 131.963
lwrist 64.9633
lhand -14.8505 22.3201
lfingers 7.12502
lthumb 11.309 51.9952
rfemur -10.3016 15.2707 11.5246
rtibia 54.9676
rfoot -38.3585 -16.1516
rtoes -14.5843
lfemur -22.0835 -4.16364 -2.01638
ltibia 30.4109
lfoot -7.2726 -3.50923
ltoes -34.1898
2460
root 13.1019 16.2667 3.92626 -0.0935995 16.493 7.05668
lowerback 6.36642 -0.446397 4.09203
upperback -0.252035 -0.151752 3.15044
thorax -3.83992 -0.120382 0.978197
lowerneck 15.0997 10.5498 17.9248
upperneck -18.7709 14.0629 -29.143
head -4.24228 8.55952 -13.7118
rclavicle 7.86566e-014 -7.95139e-015
rhumerus -18.5037 -3.7445 -70.6196
rradius 114.064
rwrist -15.6109
rhand 0.86898 3.72924
rfingers 7.12502
rthumb 26.4224 -24.4493
lclavicle 7.86566e-014 -7.95139e-015
lhumerus -30.0501 36.2762 17.685
lradius 131.353
lwrist 64.64
lhand -13.3295 21.6347
lfingers 7.12502
lthumb 12.7756 51.2238
rfemur -10.3748 15.1391 11.4433
rtibia 55.1339
rfoot -38.5584 -16.3986
rtoes -16.0629
lfemur -21.7907 -4.12525 -2.16334
ltibia 30.9779
lfoot -7.77929 -3.74044
ltoes -33.6387
2461
root 13.0862 16.2668 3.88512 -0.316842 16.7518 6.98217
lowerback 6.48576 -0.576045 4.18059
upperback -0.316861 -0.300074 3.27976
thorax -3.97679 -0.19601 1.07961
lowerneck 15.1897 10.542 17.9703
upperneck -18.7702 14.0846 -29.0726
head -4.25626 8.56431 -13.7007
rclavicle 4.37016e-014 1.90833e-014
rhumerus -18.2566 -3.46663 -70.4806
rradius 113.614
rwrist -15.3795
rhand 0.829595 3.80108
rfingers 7.12502
rthumb 26.3847 -24.3831
lclavicle 4.37016e-014 1.90833e-014
lhumerus -29.6811 36.115 16.9261
lradius 130.679
lwrist 64.0717
lhand -11.5758 21.1719
lfingers 7.12502
lthumb 14.4657 50.6477
rfemur -10.3261 15.0932 11.6063
rtibia 55.2675
rfoot -38.8809 -15.7123
rtoes -15.1239
lfemur -21.3077 -4.09472 -2.09919
ltibia 31.531
lfoot -8.17001 -3.71901
ltoes -34.1862
2462
root 13.0761 16.2781 3.84296 -0.416158 16.9663 6.90314
lowerback 6.39232 -0.673594 4.29617
upperback -0.303483 -0.422636 3.39341
thorax -3.91215 -0.256652 1.14368
lowerneck 14.9798 10.5903 18.0665
upperneck -18.6248 14.1772 -29.0124
head -4.14975 8.58559 -13.6485
rclavicle 6.52262e-016 -2.22639e-014
rhumerus -17.9076 -3.32304 -70.3554
rradius 113.26
rwrist -14.9755
rhand 0.654775 3.9473
rfingers 7.12502
rthumb 26.2174 -24.2618
lclavicle 6.52262e-016 -2.22639e-014
lhumerus -29.0916 36.3888 16.2373
lradius 129.941
lwrist 63.7391
lhand -9.76542 21.134
lfingers 7.12502
lthumb 16.2095 50.4763
rfemur -10.3756 15.0174 11.7185
rtibia 55.3491
rfoot -38.9345 -15.5612
rtoes -13.9355
lfemur -20.9522 -4.01887 -2.02634
ltibia 32.0303
lfoot -8.50943 -3.65091
ltoes -34.9297
2463
root 13.0715 16.2869 3.80074 -0.316503 17.1111 6.93511
lowerback 6.17722 -0.708587 4.23032
upperback -0.37185 -0.478204 3.55823
thorax -3.86096 -0.280782 1.35484
lowerneck 14.6949 10.6635 18.0499
upperneck -18.2748 14.2993 -28.9391
head -3.97599 8.62189 -13.544
rclavicle -1.77524e-014 3.81667e-014
rhumerus -17.5583 -3.3173 -70.0758
rradius 113.036
rwrist -14.3294
rhand 0.897979 3.70489
rfingers 7.12502
rthumb 26.4502 -24.4694
lclavicle -1.77524e-014 3.81667e-014
lhumerus -28.4701 36.5715 15.7468
lradius 129.125
lwrist 63.3965
lhand -8.18988 20.8285
lfingers 7.12502
lthumb 17.7261 50.0405
rfemur -10.6068 14.9415 11.6189
rtibia 55.3805
rfoot -38.9435 -15.7742
rtoes -13.462
lfemur -20.7355 -3.86226 -2.0811
ltibia 32.4819
lfoot -8.89478 -3.61593
ltoes -35.6803
2464
root 13.0679 16.289 3.76327 -0.210081 17.3197 7.05907
lowerback 6.07645 -0.757031 3.95225
upperback -0.550703 -0.551508 3.76553
thorax -3.98609 -0.311189 1.73407
lowerneck 14.555 10.7002 17.9343
upperneck -17.9337 14.373 -28.7887
head -3.86164 8.63992 -13.4169
rclavicle -4.75344e-014 3.18055e-014
rhumerus -17.1835 -3.22161 -69.7067
rradius 112.769
rwrist -13.5805
rhand 1.11517 3.60552
rfingers 7.12502
rthumb 26.6581 -24.5374
lclavicle -4.75344e-014 3.18055e-014
lhumerus -28.0666 36.6794 15.2385
lradius 128.28
lwrist 63.1989
lhand -6.23254 20.4448
lfingers 7.12502
lthumb 19.6088 49.4759
rfemur -10.7859 14.8222 11.3929
rtibia 55.3224
rfoot -39.1532 -15.5992
rtoes -11.9533
lfemur -20.4498 -3.92447 -2.22629
ltibia 32.9002
lfoot -9.10466 -3.45439
ltoes -36.103
2465
root 13.0618 16.2945 3.72711 -0.169323 17.4806 7.13594
lowerback 5.98501 -0.766897 3.68464
upperback -0.683333 -0.574219 3.97058
thorax -4.0678 -0.31522 2.10024
lowerneck 14.7138 10.6226 17.9094
upperneck -17.9791 14.2753 -28.791
head -3.93085 8.60199 -13.4443
rclavicle 9.06955e-015 -4.13472e-014
rhumerus -16.8132 -3.05246 -69.3173
rradius 112.41
rwrist -12.8569
rhand 0.898986 3.66413
rfingers 7.12502
rthumb 26.4512 -24.5101
lclavicle 9.06955e-015 -4.13472e-014
lhumerus -27.7113 36.7063 14.6373
lradius 127.577
lwrist 63.3713
lhand -4.81169 19.973
lfingers 7.12502
lthumb 20.9743 48.8589
rfemur -10.8714 14.7528 11.2448
rtibia 55.1686
rfoot -39.1601 -15.4788
rtoes -10.3802
lfemur -20.1449 -3.87321 -2.34076
ltibia 33.3173
lfoot -9.34223 -3.04907
ltoes -37.7309
2466
root 13.0627 16.3126 3.68729 -0.150699 17.5624 7.16578
lowerback 5.89923 -0.733295 3.62629
upperback -0.741263 -0.530137 4.10246
thorax -4.07853 -0.290498 2.26573
lowerneck 14.7779 10.5491 17.8963
upperneck -18.1961 14.1426 -28.8518
head -4.03316 8.54849 -13.5033
rclavicle -1.98288e-014 3.81667e-014
rhumerus -16.5558 -3.09409 -68.9828
rradius 112.153
rwrist -12.1005
rhand 0.90062 3.5698
rfingers 7.12502
rthumb 26.4527 -24.6041
lclavicle -1.98288e-014 3.81667e-014
lhumerus -27.0994 36.733 14.1518
lradius 127.001
lwrist 63.6776
lhand -4.28517 19.4106
lfingers 7.12502
lthumb 21.4801 48.2397
rfemur -10.9 14.6936 11.0996
rtibia 54.9239
rfoot -39.1111 -14.9084
rtoes -8.66996
lfemur -19.8681 -3.61091 -2.48317
ltibia 33.7484
lfoot -9.7227 -2.40884
ltoes -40.8265
2467
root 13.0723 16.3352 3.64505 -0.092854 17.7379 7.12937
lowerback 5.80907 -0.783988 3.73145
upperback -0.842579 -0.585595 4.19577
thorax -4.13304 -0.319638 2.30961
lowerneck 14.66 10.5835 17.8633
upperneck -18.2923 14.1677 -28.7427
head -4.04675 8.5464 -13.45
rclavicle 2.33075e-014 2.22639e-014
rhumerus -16.444 -3.22406 -68.8425
rradius 111.91
rwrist -11.1481
rhand 1.09215 3.93662
rfingers 7.12502
rthumb 26.636 -24.2096
lclavicle 2.33075e-014 2.22639e-014
lhumerus -26.5213 36.7507 13.6189
lradius 126.356
lwrist 63.3846
lhand -3.63233 19.0908
lfingers 7.12502
lthumb 22.107 47.847
rfemur -10.8966 14.5463 10.9806
rtibia 54.5921
rfoot -39.0555 -14.3726
rtoes -7.50586
lfemur -19.6765 -3.50874 -2.54979
ltibia 34.2231
lfoot -9.90918 -2.19244
ltoes -41.7667
